<?xml version='1.0' encoding='utf-8'?>
<svg xmlns="http://www.w3.org/2000/svg" viewBox="0 0 800 800"> <defs> <mask id="d" maskUnits="userSpaceOnUse"> <circle cx="400" cy="652.36" r="400" fill="#fff" fill-rule="evenodd" overflow="visible" solid-color="#000000" stroke-linecap="square" stroke-miterlimit="10" stroke-width="7.5" style="isolation:auto;mix-blend-mode:normal"/> </mask> <mask id="b" maskUnits="userSpaceOnUse"> <circle cx="400" cy="400" r="400" fill="#fff" fill-rule="evenodd" overflow="visible" solid-color="#000000" stroke-linecap="square" stroke-miterlimit="10" stroke-width="7.5" style="isolation:auto;mix-blend-mode:normal"/> </mask> <linearGradient id="c" x1="416.2" x2="178.17" y1="373.63" y2="611.66" gradientUnits="userSpaceOnUse"> <stop offset="0"/> <stop stop-opacity="0" offset="1"/> </linearGradient> </defs> <g transform="translate(0 -252.36)"> <circle cx="400" cy="652.36" r="400" fill="#1c8adb" fill-rule="evenodd" overflow="visible" solid-color="#000000" style="isolation:auto;mix-blend-mode:normal"/> <path transform="translate(0 252.36)" d="M410.873 212.36c-42.576 0-80.806 18.553-107.086 48L268.5 295.65c-.288.256-.566.523-.852.782-.096 0-.19-.006-.287-.006-31.016 0-58.78 13.92-77.393 35.85L10.12 512.127c68.326 182.97 175.27 235.14 284.566 279.346L604.56 481.598c18.026-14.62 29.555-36.934 29.555-61.95 0-44.034-35.697-79.73-79.732-79.73-.295 0-.59.018-.885.02-7.926-71.76-68.752-127.58-142.625-127.58z" fill="url(#c)" mask="url(#b)" opacity=".42"/> <path transform="rotate(180 305.11 747.17)" d="m305.11 627.2-65.83 85.736h50.514l7e-3 127.07h33.68v-127.07h47.463l-65.834-85.736z" fill="#fff" mask="url(#d)"/> <path d="m410.87 464.72c-58.365 0-108.59 34.842-131.01 84.86-4.098-0.505-8.263-0.794-12.5-0.794-56.042 0-101.48 45.432-101.48 101.48 0 56.045 45.433 101.48 101.48 101.48h14.376v-102.41h43.682l4e-3 102.4h228.96c44.036 0 79.733-35.698 79.733-79.732s-35.697-79.73-79.732-79.73c-0.295 0-0.59 0.02-0.885 0.022-7.926-71.76-68.752-127.58-142.62-127.58z" fill="#fff"/> </g> </svg>